<svg xmlns="http://www.w3.org/2000/svg" viewBox="0 0 800 680" width="800" height="680" role="img" aria-label="Structured academic planning and curriculum framework">
  <defs>
    <linearGradient id="bg2" x1="0" y1="0" x2="1" y2="1"><stop offset="0" stop-color="#EAF2FF"/><stop offset="1" stop-color="#E2ECFF"/></linearGradient>
    <linearGradient id="clip" x1="0" y1="0" x2="1" y2="1"><stop offset="0" stop-color="#1A56DB"/><stop offset="1" stop-color="#12327A"/></linearGradient>
  </defs>
  <rect width="800" height="680" rx="28" fill="url(#bg2)"/>
  <!-- calendar (back) -->
  <g transform="translate(470 120)">
    <rect x="0" y="0" width="250" height="230" rx="18" fill="#fff"/>
    <rect x="0" y="0" width="250" height="52" rx="18" fill="#0EA5E9"/>
    <rect x="0" y="34" width="250" height="20" fill="#0EA5E9"/>
    <rect x="40" y="-14" width="14" height="36" rx="7" fill="#0C7CAE"/>
    <rect x="196" y="-14" width="14" height="36" rx="7" fill="#0C7CAE"/>
    <g fill="#CFE6F6">
      <rect x="22" y="78" width="34" height="26" rx="5"/><rect x="72" y="78" width="34" height="26" rx="5"/><rect x="122" y="78" width="34" height="26" rx="5"/><rect x="172" y="78" width="34" height="26" rx="5"/>
      <rect x="22" y="118" width="34" height="26" rx="5"/><rect x="72" y="118" width="34" height="26" rx="5"/><rect x="122" y="118" width="34" height="26" rx="5"/><rect x="172" y="118" width="34" height="26" rx="5"/>
      <rect x="22" y="158" width="34" height="26" rx="5"/><rect x="72" y="158" width="34" height="26" rx="5"/>
    </g>
    <rect x="122" y="158" width="34" height="26" rx="5" fill="#F59E0B"/>
  </g>
  <!-- clipboard (front) -->
  <g transform="translate(110 150)">
    <rect x="0" y="0" width="300" height="400" rx="22" fill="#fff"/>
    <rect x="0" y="0" width="300" height="400" rx="22" fill="none" stroke="#DCE7FA" stroke-width="2"/>
    <rect x="95" y="-18" width="110" height="46" rx="12" fill="url(#clip)"/>
    <rect x="128" y="-30" width="44" height="26" rx="10" fill="#12327A"/>
    <!-- checklist rows -->
    <g>
      <circle cx="56" cy="90" r="18" fill="#DFF5E8"/><path d="M48 90 l6 7 l12 -15" stroke="#059669" stroke-width="5" fill="none" stroke-linecap="round" stroke-linejoin="round"/>
      <rect x="90" y="82" width="170" height="16" rx="8" fill="#D7E2F3"/>
      <circle cx="56" cy="160" r="18" fill="#DFF5E8"/><path d="M48 160 l6 7 l12 -15" stroke="#059669" stroke-width="5" fill="none" stroke-linecap="round" stroke-linejoin="round"/>
      <rect x="90" y="152" width="150" height="16" rx="8" fill="#D7E2F3"/>
      <circle cx="56" cy="230" r="18" fill="#DFF5E8"/><path d="M48 230 l6 7 l12 -15" stroke="#059669" stroke-width="5" fill="none" stroke-linecap="round" stroke-linejoin="round"/>
      <rect x="90" y="222" width="175" height="16" rx="8" fill="#D7E2F3"/>
      <circle cx="56" cy="300" r="18" fill="#EAF1FD" stroke="#BFD3F5" stroke-width="3"/>
      <rect x="90" y="292" width="130" height="16" rx="8" fill="#E4EBF6"/>
    </g>
  </g>
  <!-- pencil -->
  <g transform="rotate(42 520 470)">
    <rect x="470" y="430" width="150" height="34" rx="8" fill="#F59E0B"/>
    <path d="M620 430 l40 17 l-40 17 Z" fill="#F4C27A"/>
    <path d="M652 442 l8 5 l-8 5 Z" fill="#374151"/>
    <rect x="452" y="430" width="20" height="34" rx="6" fill="#E5679B"/>
  </g>
</svg>
